<?xml version="1.0" encoding="UTF-8"?>
<svg id="Layer_2" data-name="Layer 2" xmlns="http://www.w3.org/2000/svg" viewBox="0 0 839.65 182.01">
  <defs>
    <style>
      .cls-1 {
        stroke-dasharray: 0 0 0 0 2.09 2.09 0 2.09;
      }

      .cls-1, .cls-2, .cls-3, .cls-4, .cls-5, .cls-6, .cls-7, .cls-8, .cls-9, .cls-10, .cls-11, .cls-12, .cls-13, .cls-14, .cls-15, .cls-16, .cls-17, .cls-18, .cls-19, .cls-20, .cls-21 {
        fill: none;
        stroke: #acacac;
        stroke-linecap: round;
        stroke-miterlimit: 10;
      }

      .cls-2 {
        stroke-dasharray: 0 0 0 0 3.2 3.2 0 3.2;
      }

      .cls-3 {
        stroke-dasharray: 0 0 0 0 0 0 2.09 0 2.09 2.09 0 2.09;
      }

      .cls-22 {
        font-family: HansonBold, Hanson;
        font-size: 164.12px;
      }

      .cls-22, .cls-23 {
        fill: #fff;
      }

      .cls-24 {
        letter-spacing: -.03em;
      }

      .cls-5 {
        stroke-dasharray: 0 0 0 0 2.09 2.09 0 2.09;
      }

      .cls-6 {
        stroke-dasharray: 0 0 0 0 0 0 3.2 0 3.2 3.2 0 3.2;
      }

      .cls-7 {
        stroke-dasharray: 0 0 0 0 0 0 2.09 0 2.09 2.09 0 2.09;
      }

      .cls-8 {
        stroke-dasharray: 0 0 0 0 0 0 2.86 0 2.86 2.86 0 2.86;
      }

      .cls-9 {
        stroke-dasharray: 0 0 0 0 3.46 3.46 0 3.46;
      }

      .cls-10 {
        stroke-dasharray: 0 0 0 0 0 0 2.09 0 2.09 2.09 0 2.09;
      }

      .cls-25 {
        letter-spacing: 0em;
      }

      .cls-11 {
        stroke-dasharray: 0 0 0 0 2.09 2.09 0 2.09;
      }

      .cls-12 {
        stroke-dasharray: 0 0 0 0 3.46 3.46 0 3.46;
      }

      .cls-26 {
        letter-spacing: -.02em;
      }

      .cls-13 {
        stroke-dasharray: 0 0 0 0 2.09 2.09 0 2.09;
      }

      .cls-14 {
        stroke-dasharray: 0 0 0 0 0 0 3.04 0 3.04 3.04 0 3.04;
      }

      .cls-23 {
        stroke-width: 0px;
      }

      .cls-15 {
        stroke-dasharray: 0 0 0 0 3.46 3.46 0 3.46;
      }

      .cls-16 {
        stroke-dasharray: 0 0 0 0 2.86 2.86 0 2.86;
      }

      .cls-17 {
        stroke-dasharray: 0 0 0 0 3.04 3.04 0 3.04;
      }

      .cls-18 {
        stroke-dasharray: 0 0 0 0 3.46 3.46 0 3.46;
      }

      .cls-19 {
        stroke-dasharray: 0 0 0 0 2.97 2.97 0 2.97;
      }

      .cls-20 {
        stroke-dasharray: 0 0 0 0 0 0 2.97 0 2.97 2.97 0 2.97;
      }

      .cls-21 {
        stroke-dasharray: 0 0 0 0 0 0 2.09 0 2.09 2.09 0 2.09;
      }
    </style>
  </defs>
  <g id="Layer_1-2" data-name="Layer 1">
    <g>
      <g>
        <g>
          <path class="cls-23" d="m751.35,31.34l-23.49-25.48c-2.41,1.54-6.06.95-8.16-1.32l-.66.42c.44.47.42,1.09-.04,1.39s-1.19.15-1.62-.32l-1.5.95c.44.47.42,1.09-.04,1.39s-1.19.15-1.62-.32l-1.5.95c.44.47.42,1.09-.04,1.39s-1.19.15-1.62-.32l-1.5.95c.44.47.42,1.09-.04,1.39s-1.19.15-1.62-.32l-1.5.95c.44.47.42,1.09-.04,1.39s-1.19.15-1.62-.32l-1.5.95c.44.47.42,1.09-.04,1.39s-1.19.15-1.62-.32l-1.5.95c.44.47.42,1.09-.04,1.39s-1.19.15-1.62-.32l-1.5.95c.44.47.42,1.09-.04,1.39s-1.19.15-1.62-.32l-1.5.95c.44.47.42,1.09-.04,1.39s-1.19.15-1.62-.32l-1.5.95c.44.47.42,1.09-.04,1.39s-1.19.15-1.62-.32l-1.5.95c.44.47.42,1.09-.04,1.39s-1.19.15-1.62-.32l-1.5.95c.44.47.42,1.09-.04,1.39s-1.19.15-1.62-.32l-1.5.96c.44.47.42,1.09-.04,1.39s-1.19.15-1.62-.32l-1.5.95c.44.47.42,1.09-.04,1.39s-1.19.15-1.62-.32l-1.5.95c.44.47.42,1.09-.04,1.39s-1.19.15-1.62-.32l-.9.57c2.09,2.27,1.83,5.36-.58,6.9-.12.08-.24.14-.37.21l23.5,25.5c1.46-.93,3.68-.58,4.94.8s1.11,3.25-.35,4.18l80.53,87.36c.11-.08.22-.17.34-.24,2.41-1.54,6.06-.95,8.16,1.32l.9-.57c-.44-.47-.42-1.09.04-1.39s1.19-.15,1.62.32l1.5-.95c-.44-.47-.42-1.09.04-1.39s1.19-.15,1.62.32l1.5-.95c-.44-.47-.42-1.09.04-1.39s1.19-.15,1.62.32l1.5-.96c-.44-.47-.42-1.09.04-1.39s1.19-.15,1.62.32l1.5-.95c-.44-.47-.42-1.09.04-1.39s1.19-.15,1.62.32l1.5-.95c-.44-.47-.42-1.09.04-1.39s1.19-.15,1.62.32l1.5-.95c-.44-.47-.42-1.09.04-1.39s1.19-.15,1.62.32l1.5-.95c-.44-.47-.42-1.09.04-1.39s1.19-.15,1.62.32l1.5-.95c-.44-.47-.42-1.09.04-1.39s1.19-.15,1.62.32l1.5-.95c-.44-.47-.42-1.09.04-1.39s1.19-.15,1.62.32l1.5-.95c-.44-.47-.42-1.09.04-1.39s1.19-.15,1.62.32l1.5-.95c-.44-.47-.42-1.09.04-1.39s1.19-.15,1.62.32l1.5-.95c-.44-.47-.42-1.09.04-1.39s1.19-.15,1.62.32l1.5-.95c-.44-.47-.42-1.09.04-1.39s1.19-.15,1.62.32l1.5-.95c-.44-.47-.42-1.09.04-1.39s1.19-.15,1.62.32l.66-.42c-2.09-2.27-1.83-5.36.58-6.9l-80.51-87.34c-1.46.93-3.68.58-4.94-.8s-1.11-3.25.35-4.18Zm-46.93,35.51c-.46.29-1.19.15-1.62-.32s-.42-1.09.04-1.39,1.19-.15,1.62.32.42,1.09-.04,1.39Zm3.16-2.02c-.46.29-1.19.15-1.62-.32s-.42-1.09.04-1.39,1.19-.15,1.62.32.42,1.09-.04,1.39Zm3.16-2.02c-.46.29-1.19.15-1.62-.32s-.42-1.09.04-1.39,1.19-.15,1.62.32.42,1.09-.04,1.39Zm3.16-2.02c-.46.29-1.19.15-1.62-.32s-.42-1.09.04-1.39,1.19-.15,1.62.32.42,1.09-.04,1.39Zm3.16-2.02c-.46.29-1.19.15-1.62-.32s-.42-1.09.04-1.39,1.19-.15,1.62.32.42,1.09-.04,1.39Zm3.16-2.02c-.46.29-1.19.15-1.62-.32s-.42-1.09.04-1.39,1.19-.15,1.62.32.42,1.09-.04,1.39Zm3.16-2.02c-.46.29-1.19.15-1.62-.32s-.42-1.09.04-1.39,1.19-.15,1.62.32.42,1.09-.04,1.39Zm3.16-2.02c-.46.29-1.19.15-1.62-.32s-.42-1.09.04-1.39,1.19-.15,1.62.32.42,1.09-.04,1.39Zm3.16-2.02c-.46.29-1.19.15-1.62-.32s-.42-1.09.04-1.39,1.19-.15,1.62.32.42,1.09-.04,1.39Zm3.16-2.02c-.46.29-1.19.15-1.62-.32s-.42-1.09.04-1.39,1.19-.15,1.62.32.42,1.09-.04,1.39Zm3.16-2.02c-.46.29-1.19.15-1.62-.32s-.42-1.09.04-1.39,1.19-.15,1.62.32.42,1.09-.04,1.39Zm3.16-2.02c-.46.29-1.19.15-1.62-.32s-.42-1.09.04-1.39,1.19-.15,1.62.32.42,1.09-.04,1.39Zm3.16-2.02c-.46.29-1.19.15-1.62-.32s-.42-1.09.04-1.39,1.19-.15,1.62.32.42,1.09-.04,1.39Zm3.16-2.02c-.46.29-1.19.15-1.62-.32s-.42-1.09.04-1.39,1.19-.15,1.62.32.42,1.09-.04,1.39Zm3.16-2.02c-.46.29-1.19.15-1.62-.32s-.42-1.09.04-1.39,1.19-.15,1.62.32.42,1.09-.04,1.39Z"/>
          <g>
            <path class="cls-4" d="m743.93,32.8c.1.15.22.29.35.44l-.51.33"/>
            <line class="cls-19" x1="743.76" y1="33.57" x2="741.56" y2="34.98"/>
            <line class="cls-20" x1="740.7" y1="35.52" x2="700.4" y2="61.25"/>
            <path class="cls-4" d="m699.89,61.57l-.51.33c-.13-.14-.27-.27-.41-.39"/>
            <path class="cls-18" d="m698.96,61.51c-.83-.7-1.89-1.07-2.88-1.07"/>
            <path class="cls-4" d="m694.94,60.63c-.2.07-.38.16-.56.27l-.38-.41"/>
            <line class="cls-2" x1="694" y1="60.49" x2="692.22" y2="58.56"/>
            <line class="cls-6" x1="691.56" y1="57.84" x2="678.93" y2="44.14"/>
            <path class="cls-4" d="m678.52,43.7l-.38-.41c.17-.11.33-.24.46-.38"/>
            <path class="cls-15" d="m678.6,42.91c.64-.67.81-1.64.48-2.58"/>
            <path class="cls-4" d="m678.63,39.45c-.1-.15-.22-.29-.35-.44l.51-.33"/>
            <line class="cls-19" x1="678.79" y1="38.68" x2="681" y2="37.27"/>
            <line class="cls-20" x1="681.85" y1="36.73" x2="722.15" y2="11"/>
            <path class="cls-4" d="m722.66,10.68l.51-.33c.13.14.27.27.41.39"/>
            <path class="cls-12" d="m723.59,10.74c.83.7,1.89,1.07,2.88,1.07"/>
            <path class="cls-4" d="m727.61,11.62c.2-.07.38-.16.56-.27l.38.41"/>
            <line class="cls-2" x1="728.55" y1="11.76" x2="730.33" y2="13.69"/>
            <line class="cls-6" x1="731" y1="14.41" x2="743.63" y2="28.11"/>
            <path class="cls-4" d="m744.03,28.55l.38.41c-.17.11-.33.24-.46.38"/>
            <path class="cls-9" d="m743.95,29.34c-.64.67-.81,1.64-.48,2.58"/>
          </g>
          <g>
            <path class="cls-4" d="m828.93,126.43c.11.15.23.29.36.43l-.51.33"/>
            <line class="cls-16" x1="828.78" y1="127.19" x2="826.66" y2="128.54"/>
            <line class="cls-8" x1="825.83" y1="129.07" x2="787.02" y2="153.85"/>
            <path class="cls-4" d="m786.53,154.17l-.51.33c-.13-.14-.27-.27-.41-.4"/>
            <path class="cls-11" d="m785.6,154.09c-.42-.37-.89-.68-1.38-.92"/>
            <path class="cls-3" d="m783.46,152.86c-1.03-.34-2.11-.39-3.05-.11"/>
            <path class="cls-4" d="m779.99,152.9c-.19.08-.37.18-.55.29l-.38-.41"/>
            <line class="cls-17" x1="779.06" y1="152.77" x2="777.38" y2="150.94"/>
            <line class="cls-14" x1="776.73" y1="150.24" x2="708.84" y2="76.59"/>
            <path class="cls-4" d="m708.45,76.16l-.38-.41c.17-.11.33-.23.48-.37"/>
            <path class="cls-1" d="m708.54,75.38c.4-.37.68-.83.84-1.32"/>
            <path class="cls-21" d="m709.51,73.34c.06-.8-.17-1.66-.69-2.47"/>
            <path class="cls-4" d="m708.61,70.56c-.11-.15-.23-.29-.36-.43l.51-.33"/>
            <line class="cls-16" x1="708.76" y1="69.8" x2="710.88" y2="68.45"/>
            <line class="cls-8" x1="711.71" y1="67.92" x2="750.52" y2="43.14"/>
            <path class="cls-4" d="m751.02,42.83l.51-.33c.13.14.27.27.41.4"/>
            <path class="cls-13" d="m751.94,42.9c.42.37.89.68,1.38.92"/>
            <path class="cls-7" d="m754.09,44.14c1.03.34,2.11.39,3.05.11"/>
            <path class="cls-4" d="m757.55,44.1c.19-.08.37-.18.55-.29l.38.41"/>
            <line class="cls-17" x1="758.48" y1="44.22" x2="760.16" y2="46.05"/>
            <line class="cls-14" x1="760.81" y1="46.75" x2="828.7" y2="120.41"/>
            <path class="cls-4" d="m829.09,120.83l.38.41c-.17.11-.33.23-.48.37"/>
            <path class="cls-5" d="m829,121.61c-.4.37-.68.83-.84,1.32"/>
            <path class="cls-10" d="m828.03,123.65c-.06.8.17,1.66.69,2.47"/>
          </g>
        </g>
        <g>
          <path class="cls-23" d="m811.51,82.02l26.76-22.36c-1.62-2.3-1-5.77,1.38-7.77l-.44-.62c-.5.42-1.15.4-1.46-.04s-.16-1.13.34-1.55l-1-1.42c-.5.42-1.15.4-1.46-.04s-.16-1.13.34-1.55l-1-1.42c-.5.42-1.15.4-1.46-.04s-.16-1.13.34-1.55l-1-1.42c-.5.42-1.15.4-1.46-.04s-.16-1.13.34-1.55l-1-1.42c-.5.42-1.15.4-1.46-.04s-.16-1.13.34-1.55l-1-1.42c-.5.42-1.15.4-1.46-.04s-.16-1.13.34-1.55l-1-1.42c-.5.42-1.15.4-1.46-.04s-.16-1.13.34-1.55l-1-1.42c-.5.42-1.15.4-1.46-.04s-.16-1.13.34-1.55l-1-1.42c-.5.42-1.15.4-1.46-.04s-.16-1.13.34-1.55l-1-1.42c-.5.42-1.15.4-1.46-.04s-.16-1.13.34-1.55l-1-1.42c-.5.42-1.15.4-1.46-.04s-.16-1.13.34-1.55l-1-1.42c-.5.42-1.15.4-1.46-.04s-.16-1.13.34-1.55l-1-1.42c-.5.42-1.15.4-1.46-.04s-.16-1.13.34-1.55l-1-1.42c-.5.42-1.15.4-1.46-.04s-.16-1.13.34-1.55l-1-1.42c-.5.42-1.15.4-1.46-.04s-.16-1.13.34-1.55l-.6-.86c-2.38,1.99-5.63,1.74-7.24-.56-.08-.11-.15-.23-.22-.35l-26.78,22.38c.98,1.39.6,3.5-.84,4.71s-3.41,1.06-4.39-.34l-91.75,76.68c.09.1.17.21.25.32,1.62,2.3,1,5.77-1.38,7.77l.6.86c.5-.41,1.15-.4,1.46.04s.16,1.13-.34,1.55l1,1.42c.5-.41,1.15-.4,1.46.04s.16,1.13-.34,1.55l1,1.42c.5-.41,1.15-.4,1.46.04s.16,1.13-.34,1.55l1,1.42c.5-.41,1.15-.4,1.46.04s.16,1.13-.34,1.55l1,1.42c.5-.41,1.15-.4,1.46.04s.16,1.13-.34,1.55l1,1.42c.5-.41,1.15-.4,1.46.04s.16,1.13-.34,1.55l1,1.42c.5-.41,1.15-.4,1.46.04s.16,1.13-.34,1.55l1,1.42c.5-.41,1.15-.4,1.46.04s.16,1.13-.34,1.55l1,1.42c.5-.41,1.15-.4,1.46.04s.16,1.13-.34,1.55l1,1.42c.5-.41,1.15-.4,1.46.04s.16,1.13-.34,1.55l1,1.42c.5-.41,1.15-.4,1.46.04s.16,1.13-.34,1.55l1,1.42c.5-.41,1.15-.4,1.46.04s.16,1.13-.34,1.55l1,1.42c.5-.41,1.15-.4,1.46.04s.16,1.13-.34,1.55l1,1.42c.5-.41,1.15-.4,1.46.04s.16,1.13-.34,1.55l1,1.42c.5-.41,1.15-.4,1.46.04s.16,1.13-.34,1.55l.44.62c2.38-1.99,5.63-1.74,7.24.56l91.73-76.66c-.98-1.39-.6-3.5.84-4.71,1.44-1.21,3.41-1.06,4.39.34Zm-37.29-44.69c-.31-.44-.16-1.13.34-1.55s1.15-.4,1.46.04.16,1.13-.34,1.55-1.15.4-1.46-.04Zm2.12,3.01c-.31-.44-.16-1.13.34-1.55s1.15-.4,1.46.04.16,1.13-.34,1.55-1.15.4-1.46-.04Zm2.12,3.01c-.31-.44-.16-1.13.34-1.55s1.15-.4,1.46.04.16,1.13-.34,1.55-1.15.4-1.46-.04Zm2.12,3.01c-.31-.44-.16-1.13.34-1.55s1.15-.4,1.46.04.16,1.13-.34,1.55-1.15.4-1.46-.04Zm2.12,3.01c-.31-.44-.16-1.13.34-1.55s1.15-.4,1.46.04.16,1.13-.34,1.55-1.15.4-1.46-.04Zm2.12,3.01c-.31-.44-.16-1.13.34-1.55s1.15-.4,1.46.04.16,1.13-.34,1.55-1.15.4-1.46-.04Zm2.12,3.01c-.31-.44-.16-1.13.34-1.55s1.15-.4,1.46.04.16,1.13-.34,1.55-1.15.4-1.46-.04Zm2.12,3.01c-.31-.44-.16-1.13.34-1.55s1.15-.4,1.46.04.16,1.13-.34,1.55-1.15.4-1.46-.04Zm2.12,3.01c-.31-.44-.16-1.13.34-1.55s1.15-.4,1.46.04.16,1.13-.34,1.55-1.15.4-1.46-.04Zm2.12,3.01c-.31-.44-.16-1.13.34-1.55s1.15-.4,1.46.04.16,1.13-.34,1.55-1.15.4-1.46-.04Zm2.12,3.01c-.31-.44-.16-1.13.34-1.55s1.15-.4,1.46.04.16,1.13-.34,1.55-1.15.4-1.46-.04Zm2.12,3.01c-.31-.44-.16-1.13.34-1.55s1.15-.4,1.46.04.16,1.13-.34,1.55-1.15.4-1.46-.04Zm2.12,3.01c-.31-.44-.16-1.13.34-1.55s1.15-.4,1.46.04.16,1.13-.34,1.55-1.15.4-1.46-.04Zm2.12,3.01c-.31-.44-.16-1.13.34-1.55s1.15-.4,1.46.04.16,1.13-.34,1.55-1.15.4-1.46-.04Zm2.12,3.01c-.31-.44-.16-1.13.34-1.55s1.15-.4,1.46.04.16,1.13-.34,1.55-1.15.4-1.46-.04Z"/>
          <g>
            <path class="cls-4" d="m809.97,74.95c-.16.1-.31.21-.46.33l-.35-.49"/>
            <line class="cls-19" x1="809.16" y1="74.8" x2="807.68" y2="72.7"/>
            <line class="cls-20" x1="807.11" y1="71.88" x2="780.09" y2="33.51"/>
            <path class="cls-4" d="m779.75,33.03l-.35-.49c.15-.12.29-.26.41-.39"/>
            <path class="cls-18" d="m779.82,32.14c.73-.79,1.13-1.8,1.12-2.74"/>
            <path class="cls-4" d="m780.74,28.31c-.07-.19-.17-.36-.29-.53l.44-.36"/>
            <line class="cls-2" x1="780.89" y1="27.42" x2="782.92" y2="25.72"/>
            <line class="cls-6" x1="783.67" y1="25.09" x2="798.06" y2="13.07"/>
            <path class="cls-4" d="m798.52,12.68l.44-.36c.12.17.25.31.4.44"/>
            <path class="cls-15" d="m799.36,12.75c.71.61,1.72.77,2.71.46"/>
            <path class="cls-4" d="m802.99,12.78c.16-.1.31-.21.46-.33l.35.49"/>
            <line class="cls-19" x1="803.79" y1="12.93" x2="805.27" y2="15.04"/>
            <line class="cls-20" x1="805.84" y1="15.85" x2="832.86" y2="54.22"/>
            <path class="cls-4" d="m833.2,54.71l.35.49c-.15.12-.29.26-.41.39"/>
            <path class="cls-12" d="m833.13,55.59c-.73.79-1.13,1.8-1.12,2.74"/>
            <path class="cls-4" d="m832.22,59.42c.07.19.17.36.29.53l-.44.36"/>
            <line class="cls-2" x1="832.07" y1="60.31" x2="830.04" y2="62.01"/>
            <line class="cls-6" x1="829.28" y1="62.64" x2="814.89" y2="74.67"/>
            <path class="cls-4" d="m814.43,75.06l-.44.36c-.12-.17-.25-.31-.4-.44"/>
            <path class="cls-9" d="m813.6,74.98c-.71-.61-1.72-.77-2.71-.46"/>
          </g>
          <g>
            <path class="cls-4" d="m711.64,155.9c-.15.1-.3.22-.45.34l-.35-.49"/>
            <line class="cls-16" x1="710.84" y1="155.75" x2="709.42" y2="153.74"/>
            <line class="cls-8" x1="708.86" y1="152.94" x2="682.84" y2="115.99"/>
            <path class="cls-4" d="m682.51,115.52l-.35-.49c.15-.12.29-.25.42-.39"/>
            <path class="cls-11" d="m682.58,114.64c.39-.4.72-.84.97-1.31"/>
            <path class="cls-3" d="m683.88,112.59c.36-.98.41-2.01.11-2.91"/>
            <path class="cls-4" d="m683.84,109.3c-.08-.18-.18-.36-.3-.52l.44-.36"/>
            <line class="cls-17" x1="683.98" y1="108.41" x2="685.9" y2="106.81"/>
            <line class="cls-14" x1="686.63" y1="106.19" x2="763.98" y2="41.54"/>
            <path class="cls-4" d="m764.43,41.17l.44-.36c.12.17.25.32.38.45"/>
            <path class="cls-1" d="m765.25,41.26c.39.38.87.65,1.39.8"/>
            <path class="cls-21" d="m767.39,42.18c.84.05,1.74-.16,2.59-.65"/>
            <path class="cls-4" d="m770.31,41.32c.15-.1.3-.22.45-.34l.35.49"/>
            <line class="cls-16" x1="771.11" y1="41.47" x2="772.52" y2="43.49"/>
            <line class="cls-8" x1="773.08" y1="44.28" x2="799.11" y2="81.24"/>
            <path class="cls-4" d="m799.44,81.7l.35.49c-.15.12-.29.25-.42.39"/>
            <path class="cls-13" d="m799.36,82.58c-.39.4-.72.84-.97,1.31"/>
            <path class="cls-7" d="m798.06,84.63c-.36.98-.41,2.01-.11,2.91"/>
            <path class="cls-4" d="m798.1,87.93c.08.18.18.36.3.52l-.44.36"/>
            <line class="cls-17" x1="797.97" y1="88.81" x2="796.05" y2="90.42"/>
            <line class="cls-14" x1="795.32" y1="91.03" x2="717.96" y2="155.68"/>
            <path class="cls-4" d="m717.52,156.05l-.44.36c-.12-.17-.25-.32-.38-.45"/>
            <path class="cls-5" d="m716.7,155.96c-.39-.38-.87-.65-1.39-.8"/>
            <path class="cls-10" d="m714.56,155.04c-.84-.05-1.74.16-2.59.65"/>
          </g>
        </g>
      </g>
      <text class="cls-22" transform="translate(0 139.67)"><tspan x="0" y="0">S</tspan><tspan class="cls-26" x="157.88" y="0">P</tspan><tspan class="cls-24" x="293.78" y="0">O</tspan><tspan class="cls-25" x="453.8" y="0">TI</tspan></text>
    </g>
  </g>
</svg>